<svg width="14" height="14" viewBox="0 0 14 14" fill="none" xmlns="http://www.w3.org/2000/svg">
  <path id="Vector" d="M6.83973 13.8416C5.89858 13.8416 5.02386 13.6657 4.21557 13.3139C3.40729 12.9621 2.70419 12.4748 2.10628 11.8519C1.50837 11.229 1.04056 10.4966 0.702852 9.65455C0.365143 8.81251 0.196289 7.90127 0.196289 6.92082C0.196289 5.95191 0.365143 5.04643 0.702852 4.2044C1.04056 3.36237 1.50837 2.62991 2.10628 2.00704C2.70419 1.38416 3.40729 0.893939 4.21557 0.536364C5.02386 0.178788 5.89858 0 6.83973 0C7.67016 0 8.44523 0.138416 9.16494 0.415249C9.88464 0.692082 10.5324 1.07273 11.1081 1.55718L10.394 2.30117C9.90679 1.89746 9.36424 1.58602 8.76633 1.36686C8.16842 1.1477 7.52622 1.03812 6.83973 1.03812C5.23423 1.03812 3.8917 1.60044 2.81214 2.72507C1.73259 3.84971 1.19281 5.24829 1.19281 6.92082C1.19281 8.59335 1.73259 9.99194 2.81214 11.1166C3.8917 12.2412 5.23423 12.8035 6.83973 12.8035C8.44523 12.8035 9.78776 12.2412 10.8673 11.1166C11.9469 9.99194 12.4867 8.59335 12.4867 6.92082C12.4867 6.57478 12.4617 6.23739 12.4119 5.90865C12.3621 5.57991 12.2874 5.25982 12.1877 4.94839L12.9517 4.15249C13.1289 4.57928 13.2617 5.02336 13.3503 5.48475C13.4389 5.94614 13.4832 6.42483 13.4832 6.92082C13.4832 7.90127 13.3116 8.81251 12.9683 9.65455C12.6251 10.4966 12.1545 11.229 11.5566 11.8519C10.9587 12.4748 10.2556 12.9621 9.44728 13.3139C8.639 13.6657 7.76981 13.8416 6.83973 13.8416ZM5.85982 10.0698L3.1194 7.19765L3.86679 6.41906L5.85982 8.49531L12.7358 1.33226L13.4998 2.11085L5.85982 10.0698Z" fill="#008000"/> <!-- Change the fill color to dark green -->
</svg>
